<svg width="16" height="16" viewBox="0 0 16 16" fill="none" xmlns="http://www.w3.org/2000/svg">
<path fill-rule="evenodd" clip-rule="evenodd" d="M2.66666 10.6667C2.66666 10.2985 2.96514 10 3.33333 10H6.66666C7.03485 10 7.33333 10.2985 7.33333 10.6667C7.33333 11.0349 7.03485 11.3333 6.66666 11.3333H4V14C4 14.3682 3.70152 14.6667 3.33333 14.6667C2.96514 14.6667 2.66666 14.3682 2.66666 14V10.6667Z" fill="white"/>
<path fill-rule="evenodd" clip-rule="evenodd" d="M13.1948 9.37978C13.5362 9.5177 13.7011 9.90626 13.5632 10.2476C13.1427 11.2884 12.4386 12.1904 11.531 12.851C10.6235 13.5116 9.54875 13.9044 8.42907 13.9846C7.3094 14.0649 6.18966 13.8294 5.19714 13.305C4.20461 12.7806 3.3791 11.9883 2.81444 11.0181C2.62923 10.6999 2.73706 10.2918 3.05528 10.1066C3.37349 9.92138 3.7816 10.0292 3.96681 10.3474C4.40599 11.102 5.04805 11.7183 5.82002 12.1261C6.59198 12.534 7.46289 12.7171 8.33374 12.6547C9.2046 12.5923 10.0405 12.2868 10.7464 11.773C11.4523 11.2592 11.9999 10.5577 12.3269 9.74816C12.4649 9.40678 12.8534 9.24185 13.1948 9.37978Z" fill="white"/>
<path fill-rule="evenodd" clip-rule="evenodd" d="M12.6667 1.33331C13.0349 1.33331 13.3333 1.63179 13.3333 1.99998V5.33331C13.3333 5.7015 13.0349 5.99998 12.6667 5.99998H9.33333C8.96514 5.99998 8.66666 5.7015 8.66666 5.33331C8.66666 4.96512 8.96514 4.66665 9.33333 4.66665H12V1.99998C12 1.63179 12.2985 1.33331 12.6667 1.33331Z" fill="white"/>
<path fill-rule="evenodd" clip-rule="evenodd" d="M10.1801 3.87386C9.40811 3.46599 8.5372 3.28285 7.66635 3.34528C6.79549 3.4077 5.95961 3.71318 5.25371 4.22698C4.54781 4.74079 4.00021 5.44232 3.67314 6.25184C3.53522 6.59322 3.14666 6.75815 2.80528 6.62022C2.4639 6.4823 2.29897 6.09374 2.4369 5.75236C2.85741 4.71156 3.56147 3.80959 4.46905 3.14898C5.37664 2.48837 6.45134 2.09562 7.57102 2.01536C8.69069 1.9351 9.81042 2.17055 10.803 2.69496C11.7955 3.21937 12.621 4.01169 13.1856 4.98188C13.3709 5.3001 13.263 5.70821 12.9448 5.89341C12.6266 6.07862 12.2185 5.97079 12.0333 5.65258C11.5941 4.89798 10.952 4.28173 10.1801 3.87386Z" fill="white"/>
</svg>
