<svg width="16" height="16" viewBox="0 0 16 16" fill="none" xmlns="http://www.w3.org/2000/svg">
<path fill-rule="evenodd" clip-rule="evenodd" d="M7.99999 2.66668C5.05448 2.66668 2.66666 5.05449 2.66666 8.00001C2.66666 10.9455 5.05448 13.3333 7.99999 13.3333C10.9455 13.3333 13.3333 10.9455 13.3333 8.00001C13.3333 5.05449 10.9455 2.66668 7.99999 2.66668ZM1.33333 8.00001C1.33333 4.31811 4.3181 1.33334 7.99999 1.33334C11.6819 1.33334 14.6667 4.31811 14.6667 8.00001C14.6667 11.6819 11.6819 14.6667 7.99999 14.6667C4.3181 14.6667 1.33333 11.6819 1.33333 8.00001Z" fill="#7D7D7D"/>
<path fill-rule="evenodd" clip-rule="evenodd" d="M7.99999 4C8.36818 4 8.66666 4.29848 8.66666 4.66667V7.33333H11.3333C11.7015 7.33333 12 7.63181 12 8C12 8.36819 11.7015 8.66667 11.3333 8.66667H7.99999C7.63181 8.66667 7.33333 8.36819 7.33333 8V4.66667C7.33333 4.29848 7.63181 4 7.99999 4Z" fill="#7D7D7D"/>
</svg>
