<svg width="16" height="16" viewBox="0 0 16 16" fill="none" xmlns="http://www.w3.org/2000/svg">
<path fill-rule="evenodd" clip-rule="evenodd" d="M3.52861 3.52858C3.78896 3.26823 4.21107 3.26823 4.47141 3.52858L12.4714 11.5286C12.7317 11.7889 12.7317 12.211 12.4714 12.4714C12.211 12.7317 11.7889 12.7317 11.5286 12.4714L3.52861 4.47138C3.26826 4.21103 3.26826 3.78892 3.52861 3.52858Z" fill="white"/>
<path fill-rule="evenodd" clip-rule="evenodd" d="M12.4714 3.52858C12.7318 3.78892 12.7318 4.21103 12.4714 4.47138L4.47138 12.4714C4.21103 12.7318 3.78892 12.7318 3.52858 12.4714C3.26823 12.2111 3.26823 11.7889 3.52858 11.5286L11.5286 3.52858C11.7889 3.26823 12.2111 3.26823 12.4714 3.52858Z" fill="white"/>
</svg>
