<svg width="16" height="16" viewBox="0 0 16 16" fill="none" xmlns="http://www.w3.org/2000/svg">
<path fill-rule="evenodd" clip-rule="evenodd" d="M3.33331 14C3.33331 13.6318 3.63179 13.3333 3.99998 13.3333H12C12.3682 13.3333 12.6666 13.6318 12.6666 14C12.6666 14.3682 12.3682 14.6667 12 14.6667H3.99998C3.63179 14.6667 3.33331 14.3682 3.33331 14Z" fill="#94E98D"/>
<path fill-rule="evenodd" clip-rule="evenodd" d="M7.99998 1.33333C8.36817 1.33333 8.66665 1.63181 8.66665 1.99999L8.66665 11.3333C8.66665 11.7015 8.36817 12 7.99998 12C7.63179 12 7.33331 11.7015 7.33331 11.3333L7.33331 1.99999C7.33331 1.63181 7.63179 1.33333 7.99998 1.33333Z" fill="#94E98D"/>
<path fill-rule="evenodd" clip-rule="evenodd" d="M4.19526 7.52861C4.45561 7.26826 4.87772 7.26826 5.13807 7.52861L8 10.3905L10.8619 7.52861C11.1223 7.26826 11.5444 7.26826 11.8047 7.52861C12.0651 7.78896 12.0651 8.21107 11.8047 8.47141L8.4714 11.8047C8.34638 11.9298 8.17681 12 8 12C7.82319 12 7.65362 11.9298 7.5286 11.8047L4.19526 8.47141C3.93491 8.21107 3.93491 7.78896 4.19526 7.52861Z" fill="#94E98D"/>
</svg>
