<svg width="16" height="16" viewBox="0 0 16 16" fill="none" xmlns="http://www.w3.org/2000/svg">
<path fill-rule="evenodd" clip-rule="evenodd" d="M4 1.33334L9.04206 1.33334C9.41348 1.33334 9.76806 1.48827 10.0204 1.7608L12.9783 4.95538C13.2066 5.20184 13.3333 5.52536 13.3333 5.86126V13.3333C13.3333 14.0697 12.7364 14.6667 12 14.6667H4C3.26362 14.6667 2.66667 14.0697 2.66667 13.3333L2.66667 2.66668C2.66667 1.9303 3.26362 1.33334 4 1.33334ZM9.04206 2.66668L4 2.66668L4 13.3333H12L12 5.86126L9.04206 2.66668Z" fill="#F24848"/>
<path fill-rule="evenodd" clip-rule="evenodd" d="M8.42345 10.4236C8.6838 10.1633 9.10591 10.1633 9.36626 10.4236L10.4713 11.5287C10.7317 11.789 10.7317 12.2111 10.4713 12.4715C10.211 12.7318 9.78886 12.7318 9.52851 12.4715L8.42345 11.3664C8.1631 11.1061 8.1631 10.684 8.42345 10.4236Z" fill="#F24848"/>
<path fill-rule="evenodd" clip-rule="evenodd" d="M7.66667 8.66668C7.11438 8.66668 6.66667 9.11439 6.66667 9.66668C6.66667 10.219 7.11438 10.6667 7.66667 10.6667C8.21895 10.6667 8.66667 10.219 8.66667 9.66668C8.66667 9.11439 8.21895 8.66668 7.66667 8.66668ZM5.33333 9.66668C5.33333 8.37801 6.378 7.33334 7.66667 7.33334C8.95533 7.33334 10 8.37801 10 9.66668C10 10.9553 8.95533 12 7.66667 12C6.378 12 5.33333 10.9553 5.33333 9.66668Z" fill="#F24848"/>
<path fill-rule="evenodd" clip-rule="evenodd" d="M8.66667 1.33334C9.03486 1.33334 9.33333 1.63182 9.33333 2.00001L9.33333 5.33334L12.6667 5.33334C13.0349 5.33334 13.3333 5.63182 13.3333 6.00001C13.3333 6.3682 13.0349 6.66668 12.6667 6.66668H9.33333C8.59695 6.66668 8 6.06972 8 5.33334L8 2.00001C8 1.63182 8.29848 1.33334 8.66667 1.33334Z" fill="#F24848"/>
</svg>
