<svg width="16" height="16" viewBox="0 0 16 16" fill="none" xmlns="http://www.w3.org/2000/svg">
<path fill-rule="evenodd" clip-rule="evenodd" d="M8 2.66668C5.05448 2.66668 2.66667 5.05449 2.66667 8.00001C2.66667 10.9455 5.05448 13.3333 8 13.3333C10.9455 13.3333 13.3333 10.9455 13.3333 8.00001C13.3333 5.05449 10.9455 2.66668 8 2.66668ZM1.33334 8.00001C1.33334 4.31811 4.3181 1.33334 8 1.33334C11.6819 1.33334 14.6667 4.31811 14.6667 8.00001C14.6667 11.6819 11.6819 14.6667 8 14.6667C4.3181 14.6667 1.33334 11.6819 1.33334 8.00001Z" fill="#55AAFB"/>
<path fill-rule="evenodd" clip-rule="evenodd" d="M8 6.66666C8.36819 6.66666 8.66667 6.96513 8.66667 7.33332V10.6667C8.66667 11.0348 8.36819 11.3333 8 11.3333C7.63181 11.3333 7.33334 11.0348 7.33334 10.6667V7.33332C7.33334 6.96513 7.63181 6.66666 8 6.66666Z" fill="#55AAFB"/>
<path fill-rule="evenodd" clip-rule="evenodd" d="M7.30013 5.33332C7.30013 4.96513 7.59861 4.66666 7.9668 4.66666H8.03347C8.40166 4.66666 8.70013 4.96513 8.70013 5.33332V5.39999C8.70013 5.76818 8.40166 6.06666 8.03347 6.06666H7.9668C7.59861 6.06666 7.30013 5.76818 7.30013 5.39999V5.33332Z" fill="#55AAFB"/>
</svg>
