<svg width="14" height="14" viewBox="0 0 14 14" fill="none" xmlns="http://www.w3.org/2000/svg">
<path fill-rule="evenodd" clip-rule="evenodd" d="M5.98971 1.75002C6.43876 0.972243 7.56138 0.972242 8.01043 1.75002L13.0622 10.5C13.5113 11.2778 12.95 12.25 12.0519 12.25H1.94825C1.05015 12.25 0.48884 11.2778 0.93789 10.5L5.98971 1.75002ZM7.00007 2.33335L1.94825 11.0834H12.0519L7.00007 2.33335Z" fill="#ECD344"/>
<path fill-rule="evenodd" clip-rule="evenodd" d="M6.3876 9.33333C6.3876 9.01117 6.64877 8.75 6.97094 8.75H7.02927C7.35144 8.75 7.6126 9.01117 7.6126 9.33333V9.39167C7.6126 9.71383 7.35144 9.975 7.02927 9.975H6.97094C6.64877 9.975 6.3876 9.71383 6.3876 9.39167V9.33333Z" fill="#ECD344"/>
<path fill-rule="evenodd" clip-rule="evenodd" d="M6.99999 4.66669C7.32216 4.66669 7.58332 4.92785 7.58332 5.25002V7.58335C7.58332 7.90552 7.32216 8.16669 6.99999 8.16669C6.67782 8.16669 6.41666 7.90552 6.41666 7.58335V5.25002C6.41666 4.92785 6.67782 4.66669 6.99999 4.66669Z" fill="#ECD344"/>
</svg>
